# xmcd
#
# Track frame offsets:
#	150
#	33447
#	63497
#	90754
#	119493
#	146066
#	191251
#	219957
#	244235
#	268689
#	306110
#
# Disc length: 4710 seconds
#
# Revision: 2
# Processed by: cddbd v1.5.2PL0 Copyright (c) Steve Scherf et al.
# Submitted via: audiograbber 1.83.01
#
DISCID=9712640b
DTITLE=Popol Vuh - Revisited and Remixed 1970-1999 [CD2) Cosmic Side
DYEAR=2011
DGENRE=Krautrock
TTITLE0=Peter Kruder Remix (Kruder and Dorfmeister) - Aguirre II/II (Lacrima di R
TTITLE0=ei Edit)
TTITLE1=Thomas Fehlmann Flow Mix (The Orb) - Schnee (Flow Edit)
TTITLE2=A Critical Mass Remix (Schwarz/Dixon/°Ame) - Heart of Glass (Sie still 
TTITLE2=wisse ich bin Edit)
TTITLE3=Alex Barck Remix - Haram Dei Haram Dei (ProgRock Edit)
TTITLE4=Roland Appel Remix - Through Pain to Heaven/Kyrie (Edit)
TTITLE5=Mika Vainio Remix (Pan Sonic) - Nachts Schnee (Ambient Edit)
TTITLE6=Moritz von Oswald Remix - Garten Pharaos (Dark Development Edit)
TTITLE7=Mouse On Mars Remix - Through Pain To Heaven/Dopeful Vuh (Edit)
TTITLE8=Stereolab Remix - Hosianna Mantra (Lyrics Edit)
TTITLE9=Haswell and Hecker Remix - Aguirre I/II (Endless Edit)
TTITLE10=Popol Vuh - Train through Time (Long Version)
EXTD=
EXTT0=
EXTT1=
EXTT2=
EXTT3=
EXTT4=
EXTT5=
EXTT6=
EXTT7=
EXTT8=
EXTT9=
EXTT10=
PLAYORDER=
